<svg xmlns="http://www.w3.org/2000/svg" viewBox="0 0 160 160"><path d="M24 114a58 58 0 01116 0" fill="none" stroke="#ed5f62" stroke-width="28"/><path d="M35 114a47 47 0 0194 0" fill="none" stroke="#ffb52e" stroke-width="21"/><path d="M46 114a36 36 0 0172 0" fill="none" stroke="#5fcf4c" stroke-width="15"/><path d="M57 114a25 25 0 0150 0" fill="none" stroke="#45aee9" stroke-width="10"/><g fill="#fff" stroke="#9bcddd" stroke-width="3"><path d="M11 118q-2-21 21-22 10-21 29-5 21 2 18 27z"/><path d="M83 118q0-19 19-21 13-24 34-5 18 1 15 26z"/></g><circle cx="48" cy="107" r="4" fill="#41718a"/><circle cx="112" cy="107" r="4" fill="#41718a"/></svg>