<svg xmlns="http://www.w3.org/2000/svg" viewBox="0 0 160 160"><defs><linearGradient id="a" x2="0" y2="1"><stop stop-color="#83edff"/><stop offset="1" stop-color="#1685d2"/></linearGradient></defs><path d="M14 111q22-59 67-62 45-3 66 35-39-19-58 11 25-6 42 17-33 32-75 22-28-6-42-23z" fill="url(#a)" stroke="#0873b8" stroke-width="4" stroke-linejoin="round"/><path d="M80 58q30-5 52 19-37-8-50 21 9-6 24-8-20 2-33 17-16 18-44 10 30 1 36-27 4-20 15-32z" fill="#fff" opacity=".9"/><circle cx="45" cy="51" r="9" fill="#d8fbff" stroke="#64c6e8" stroke-width="3"/><circle cx="27" cy="74" r="5" fill="#d8fbff"/></svg>